# AST/ASF file generated using VICON BodyLanguage
# -----------------------------------------------
:version 1.10
:name VICON
:units
  mass 1.0
  length 0.45
  angle deg
:documentation
   .ast/.asf automatically generated from VICON data using
   VICON BodyBuilder and BodyLanguage model FoxedUp or BRILLIANT.MOD
:root
   order TX TY TZ RX RY RZ
   axis XYZ
   position 0 0 0  
   orientation 0 0 0 
:bonedata
  begin
     id 1 
     name lhipjoint
     direction 0.822369 -0.411937 0.392449 
     length 3.8167 
     axis 0 0 0  XYZ
  end
  begin
     id 2 
     name lfemur
     direction 0.34202 -0.939693 0  
     length 6.16791  
     axis 0 0 20  XYZ
    dof rx ry rz
    limits (-160.0 20.0)
           (-70.0 70.0)
           (-60.0 70.0)
  end
  begin
     id 3 
     name ltibia
     direction 0.34202 -0.939693 0   
     length 7.07101   
     axis 0 0 20   XYZ
    dof rx
    limits (-10.0 170.0)
  end
  begin
     id 4 
     name lfoot
     direction 0.028254 -0.0776273 0.996582   
     length 1.66799   
     axis -90 7.62852e-016 20   XYZ
    dof rx rz
    limits (-45.0 90.0)
           (-70.0 20.0)
  end
  begin
     id 5 
     name ltoes
     direction 1.53483e-011 -4.21688e-011 1   
     length 0.851674   
     axis -90 7.62852e-016 20   XYZ
    dof rx
    limits (-90.0 20.0)
  end
  begin
     id 6 
     name rhipjoint
     direction -0.822466 -0.411836 0.392353   
     length 3.81764  
     axis 0 0 0  XYZ 
  end
  begin
     id 7 
     name rfemur
     direction -0.34202 -0.939693 0   
     length 6.28636   
     axis 0 0 -20   XYZ
    dof rx ry rz
    limits (-160.0 20.0)
           (-70.0 70.0)
           (-70.0 60.0)
  end
  begin
     id 8 
     name rtibia
     direction -0.34202 -0.939693 0   
     length 6.85621   
     axis 0 0 -20   XYZ
    dof rx
    limits (-10.0 170.0)
 end
 begin
     id 9 
     name rfoot
     direction -0.0553036 -0.151945 0.98684   
     length 1.57293  
     axis -90 -7.62852e-016 -20   XYZ
    dof rx rz
    limits (-45.0 90.0)
           (-20.0 70.0)
  end
  begin
     id 10 
     name rtoes
     direction -1.53592e-011 -4.21964e-011 1   
     length 0.802812   
     axis -90 -7.62852e-016 -20   XYZ
    dof rx
    limits (-90.0 20.0)
  end
  begin
     id 11 
     name lowerback
     direction 0.00654913 0.996475 -0.0836396   
     length 1.97212   
     axis 0 0 0   XYZ
    dof rx ry rz
    limits (-20.0 45.0)
           (-30.0 30.0)
           (-30.0 30.0)
  end
  begin
     id 12 
     name upperback
     direction 0.0111875 0.994527 0.103877   
     length 1.89704   
     axis 0 0 0   XYZ
    dof rx ry rz
    limits (-20.0 45.0)
           (-30.0 30.0)
           (-30.0 30.0)
  end
  begin
     id 13 
     name thorax
     direction 0.00473652 0.989004 0.147814   
     length 1.94516   
     axis 0 0 0   XYZ
    dof rx ry rz
    limits (-20.0 45.0)
           (-30.0 30.0)
           (-30.0 30.0)
  end
  begin
     id 14 
     name lowerneck
     direction -0.00925808 0.999011 0.0434791   
     length 1.81771   
     axis 0 0 0   XYZ
    dof rx ry rz
    limits (-20.0 45.0)
           (-30.0 30.0)
           (-30.0 30.0)
  end
  begin
     id 15 
     name upperneck
     direction 0.00451595 0.964412 -0.264365   
     length 1.80434   
     axis 0 0 0   XYZ
    dof rx ry rz
    limits (-20.0 45.0)
           (-30.0 30.0)
           (-30.0 30.0)
  end
  begin
     id 16
     name head
     direction -0.00110849 0.995756 -0.0920241  
     length 1.84006  
     axis 0 0 0   XYZ
    dof rx ry rz
    limits (-20.0 45.0)
           (-30.0 30.0)
           (-30.0 30.0)
  end
  begin
     id 17 
     name lclavicle
     direction 0.921253 0.385213 0.0538957  
     length 3.67415  
     axis 0 0 0   XYZ
    dof ry rz
    limits (-20.0 10.0)
           (0.0 20.0)
  end
  begin
     id 18 
     name lhumerus
     direction 1 -4.48961e-011 6.73441e-028   
     length 4.32712   
     axis 180 -30 -90   XYZ
    dof rx ry rz
    limits (-60.0 90.0)
           (-90.0 90.0)
           (-90.0 90.0)
  end
  begin
     id 19
     name lradius
     direction 1 -4.48985e-011 -9.53507e-028   
     length 3.28587   
     axis 180 -30 -90   XYZ
    dof rx
    limits (-10.0 170.0)
  end
  begin
     id 20
     name lwrist
     direction 1 -4.48951e-011 -4.67472e-027   
     length 1.64293   
     axis 1.65735e-015 90 90   XYZ
    dof ry
    limits (-180.0 0.0)
 end
  begin
     id 21 
     name lhand
     direction 1 -4.48946e-011 -9.34945e-027   
     length 0.433158   
     axis 5.96574e-015 90 90   XYZ
    dof rx rz
    limits (-90.0 90.0)
           (-45.0 45.0)
  end
  begin
     id 22 
     name lfingers
     direction 1 -4.48882e-011 -1.86989e-026   
     length 0.349224   
     axis 1.19315e-014 90 90   XYZ
    dof rx
    limits (0.0 90.0)
  end
  begin
     id 23
     name lthumb
     direction 0.707107 -6.3493e-011 0.707107   
     length 0.501417   
     axis -90 45 2.85299e-015   XYZ
    dof rx rz
    limits (-45.0 45.0)
           (-45.0 45.0)
  end
  begin
     id 24 
     name rclavicle
     direction -0.884378 0.46502 -0.0403866   
     length 3.50218  
     axis 0 0 0   XYZ 
    dof ry rz
    limits (-10.0 20.0)
           (-20.0 0.0)
  end
  begin
     id 25 
     name rhumerus
     direction -1 -4.48964e-011 1.58188e-027  
     length 4.29104   
     axis 180 30 90   XYZ
    dof rx ry rz
    limits (-90.0 60.0)
           (-90.0 90.0)
           (-90.0 90.0)
  end
  begin
     id 26 
     name rradius
     direction -1 -4.48978e-011 -1.9722e-027   
     length 3.2272   
     axis 180 30 90   XYZ
    dof rx
    limits (-10.0 170.0)
  end
  begin
     id 27 
     name rwrist
     direction -1 -4.48969e-011 -4.67472e-027   
     length 1.6136   
     axis 1.65735e-015 -90 -90   XYZ
    dof ry
    limits (-180.0 0.0)
  end
  begin
     id 28
     name rhand
     direction -1 -4.48846e-011 -9.34945e-027   
     length 0.543623   
     axis 5.96574e-015 -90 -90   XYZ
    dof rx rz
    limits (-90.0 90.0)
           (-45.0 45.0)
  end
  begin
     id 29
     name rfingers
     direction -1 -4.49074e-011 -1.86989e-026   
     length 0.438283   
     axis 1.19315e-014 -90 -90   XYZ
    dof rx
    limits (0.0 90.0)
  end
  begin
     id 30
     name rthumb
     direction -0.707107 -6.34834e-011 0.707107   
     length 0.629289   
     axis -90 -45 -2.85299e-015   XYZ
    dof rx rz
    limits (-45.0 45.0)
           (-45.0 45.0)
  end
:hierarchy
  begin
    root lhipjoint rhipjoint lowerback
    lhipjoint lfemur
    lfemur ltibia
    ltibia lfoot
    lfoot ltoes
    rhipjoint rfemur
    rfemur rtibia
    rtibia rfoot
    rfoot rtoes
    lowerback upperback
    upperback thorax
    thorax lowerneck lclavicle rclavicle
    lowerneck upperneck
    upperneck head
    lclavicle lhumerus
    lhumerus lradius
    lradius lwrist
    lwrist lhand lthumb
    lhand lfingers
    rclavicle rhumerus
    rhumerus rradius
    rradius rwrist
    rwrist rhand rthumb
    rhand rfingers
  end

#!OML:ASF H:\GeneralSubjects\Female5\Project 1\Capture day 1\Session 1\Female5.ASF
:FULLY-SPECIFIED
:DEGREES
112
root -33.9471 15.9408 2.20145 -166.582 24.3299 -174.76
lowerback 7.93439 1.90916 2.31593
upperback -8.68736 3.69667 2.13863
thorax -14.0309 1.85514 0.282034
lowerneck -16.8634 -1.11488 2.8044
upperneck 35.4598 1.25788 -3.51946
head 15.2597 1.33041 -1.5075
rclavicle 2.09966e-014 1.39149e-014
rhumerus -49.732 23.3336 -87.4251
rradius 33.118
rwrist -11.5736
rhand -24.5589 -23.4532
rfingers 7.12502
rthumb 1.93757 -53.4242
lclavicle 2.09966e-014 1.39149e-014
lhumerus -49.6314 -0.294753 72.301
lradius 35.3094
lwrist -1.34968
lhand -23.9725 28.8633
lfingers 7.12502
lthumb 2.50396 58.8284
rfemur -1.58998 13.0586 42.5363
rtibia -4.47838
rfoot -10.8153 -14.7571
rtoes -5.89505
lfemur -42.7348 -0.14199 -20.8692
ltibia 55.0965
lfoot -27.6187 1.5961
ltoes -34.0988
113
root -33.8651 15.9338 2.1773 -166.326 25.5958 -174.638
lowerback 7.96837 2.10562 2.74042
upperback -8.71641 3.99918 1.94938
thorax -14.043 1.93835 -0.223523
lowerneck -16.7252 -0.953481 2.98275
upperneck 35.4608 1.4179 -3.43816
head 15.2354 1.43484 -1.47636
rclavicle 4.82053e-015 2.62396e-014
rhumerus -49.5684 23.9096 -87.8772
rradius 33.4487
rwrist -11.1975
rhand -24.117 -22.9271
rfingers 7.12502
rthumb 2.36438 -52.8938
lclavicle 4.82053e-015 2.62396e-014
lhumerus -50.0235 -0.387882 71.9592
lradius 34.9431
lwrist -1.67208
lhand -23.9751 28.753
lfingers 7.12502
lthumb 2.50145 58.7181
rfemur -1.02607 12.2959 42.7577
rtibia -5.53399
rfoot -9.50073 -12.9974
rtoes -5.82752
lfemur -44.0755 -0.200525 -22.7192
ltibia 54.2958
lfoot -26.8804 1.15117
ltoes -34.8605
114
root -33.779 15.9233 2.14934 -166.004 26.8518 -174.429
lowerback 7.96435 2.29825 3.22528
upperback -8.75685 4.31005 1.77864
thorax -14.0362 2.02255 -0.741584
lowerneck -16.5832 -0.797218 3.13872
upperneck 35.4587 1.57472 -3.3481
head 15.2087 1.53593 -1.43837
rclavicle -7.62463e-014 -2.70347e-014
rhumerus -49.3875 24.5942 -88.3752
rradius 33.8292
rwrist -10.8675
rhand -23.7336 -22.4023
rfingers 7.12502
rthumb 2.7346 -52.3645
lclavicle -7.62463e-014 -2.70347e-014
lhumerus -50.4224 -0.504996 71.6168
lradius 34.5594
lwrist -1.94936
lhand -23.9296 28.6427
lfingers 7.12502
lthumb 2.54539 58.6073
rfemur -0.625635 11.0208 43.0147
rtibia -6.35867
rfoot -8.23859 -10.6641
rtoes -5.26483
lfemur -45.2201 -0.199396 -24.7307
ltibia 53.0214
lfoot -25.3452 -0.479178
ltoes -34.6402
115
root -33.6882 15.908 2.11891 -165.582 28.1053 -174.092
lowerback 7.95177 2.49381 3.78851
upperback -8.82885 4.64602 1.6295
thorax -14.0512 2.11363 -1.28376
lowerneck -16.4372 -0.657926 3.29873
upperneck 35.4548 1.71566 -3.28692
head 15.18 1.6269 -1.41632
rclavicle -2.06363e-014 -2.34566e-014
rhumerus -49.1987 25.3329 -88.8979
rradius 34.2545
rwrist -10.5953
rhand -23.472 -21.9304
rfingers 7.12502
rthumb 2.98727 -51.8892
lclavicle -2.06363e-014 -2.34566e-014
lhumerus -50.8432 -0.65308 71.2578
lradius 34.1868
lwrist -2.14357
lhand -23.8711 28.5574
lfingers 7.12502
lthumb 2.60187 58.5212
rfemur -0.342698 9.3675 43.3614
rtibia -6.96886
rfoot -7.0682 -7.88001
rtoes -4.01124
lfemur -46.2239 -0.123906 -26.7986
ltibia 51.4483
lfoot -22.9981 1.14684
ltoes -39.589
116
root -33.5924 15.8874 2.08657 -165.058 29.3637 -173.644
lowerback 7.93127 2.69647 4.39118
upperback -8.92643 5.00614 1.50364
thorax -14.0831 2.21446 -1.82604
lowerneck -16.2969 -0.528673 3.4834
upperneck 35.4396 1.84871 -3.27534
head 15.1478 1.70995 -1.42127
rclavicle -6.28035e-014 1.03368e-014
rhumerus -48.9796 26.0763 -89.3966
rradius 34.7255
rwrist -10.3658
rhand -23.3362 -21.5045
rfingers 7.12502
rthumb 3.11845 -51.4615
lclavicle -6.28035e-014 1.03368e-014
lhumerus -51.2766 -0.806634 70.8716
lradius 33.8472
lwrist -2.23444
lhand -23.8409 28.5141
lfingers 7.12502
lthumb 2.63097 58.4776
rfemur -0.188799 7.3013 43.7887
rtibia -7.33019
rfoot -5.93849 -4.62649
rtoes -2.1857
lfemur -47.0869 0.0933718 -28.9069
ltibia 49.696
lfoot -19.7185 2.6194
ltoes -45.5502
117
root -33.4922 15.8612 2.05146 -164.461 30.6364 -173.125
lowerback 7.90087 2.90677 4.99677
upperback -9.03807 5.38152 1.39051
thorax -14.1181 2.3232 -2.35727
lowerneck -16.1464 -0.387725 3.70965
upperneck 35.3943 1.99435 -3.30007
head 15.1007 1.79721 -1.447
rclavicle 6.4605e-015 1.58034e-014
rhumerus -48.7199 26.7894 -89.8481
rradius 35.2417
rwrist -10.1509
rhand -23.2943 -21.1137
rfingers 7.12502
rthumb 3.1589 -51.07
lclavicle 6.4605e-015 1.58034e-014
lhumerus -51.7243 -0.95199 70.4475
lradius 33.5666
lwrist -2.21675
lhand -23.8654 28.5344
lfingers 7.12502
lthumb 2.60734 58.4982
rfemur -0.140317 5.27503 44.2476
rtibia -7.43166
rfoot -4.84847 -1.34939
rtoes 0.41999
lfemur -47.7381 0.418626 -31.041
ltibia 47.6772
lfoot -15.6638 3.82173
ltoes -52.09
118
root -33.3877 15.8296 2.01304 -163.808 31.9405 -172.555
lowerback 7.86272 3.13276 5.5714
upperback -9.15723 5.77698 1.29112
thorax -14.1518 2.44542 -2.85812
lowerneck -16.0046 -0.23681 3.98006
upperneck 35.3398 2.15232 -3.36231
head 15.0535 1.88954 -1.49444
rclavicle -9.16708e-014 -5.01931e-014
rhumerus -48.422 27.4568 -90.2419
rradius 35.7948
rwrist -9.9495
rhand -23.3511 -20.7884
rfingers 7.12502
rthumb 3.10401 -50.7456
lclavicle -9.16708e-014 -5.01931e-014
lhumerus -52.1868 -1.08137 69.9953
lradius 33.3477
lwrist -2.08753
lhand -23.9524 28.6155
lfingers 7.12502
lthumb 2.52334 58.5804
rfemur -0.17314 3.29526 44.7177
rtibia -7.28736
rfoot -3.69832 1.92619
rtoes 3.68878
lfemur -48.1367 0.844752 -33.1678
ltibia 45.2936
lfoot -11.1735 4.82849
ltoes -58.2488
119
root -33.2783 15.7938 1.97068 -163.124 33.262 -171.964
lowerback 7.81593 3.36652 6.09284
upperback -9.27745 6.1757 1.1991
thorax -14.1784 2.57497 -3.31963
lowerneck -15.9014 -0.072078 4.27648
upperneck 35.3164 2.32274 -3.41756
head 15.032 1.99227 -1.5415
rclavicle 1.69402e-014 1.54058e-014
rhumerus -48.0958 28.0819 -90.5948
rradius 36.385
rwrist -9.76242
rhand -23.5063 -20.5949
rfingers 7.12502
rthumb 2.95418 -50.5542
lclavicle 1.69402e-014 1.54058e-014
lhumerus -52.6585 -1.17602 69.5071
lradius 33.1758
lwrist -1.84566
lhand -24.0772 28.7333
lfingers 7.12502
lthumb 2.40281 58.6995
rfemur -0.214862 1.01411 45.1517
rtibia -7.01637
rfoot -2.24733 5.46004
rtoes 7.40234
lfemur -48.2651 1.31859 -35.2487
ltibia 42.5815
lfoot -6.57364 5.68166
ltoes -63.2752
120
root -33.1629 15.7545 1.92441 -162.425 34.591 -171.386
lowerback 7.71917 3.60582 6.52652
upperback -9.38218 6.56246 1.11233
thorax -14.1568 2.71038 -3.71743
lowerneck -15.8311 0.112861 4.56869
upperneck 35.3006 2.51258 -3.44462
head 15.0237 2.10552 -1.57281
rclavicle -2.16303e-014 -1.19768e-014
rhumerus -47.7117 28.6865 -90.9015
rradius 36.9917
rwrist -9.60994
rhand -23.7219 -20.5238
rfingers 7.12502
rthumb 2.74598 -50.4858
lclavicle -2.16303e-014 -1.19768e-014
lhumerus -53.0999 -1.19449 68.9804
lradius 33.0166
lwrist -1.54645
lhand -24.2073 28.8603
lfingers 7.12502
lthumb 2.27719 58.8278
rfemur -0.247002 -1.1875 45.5344
rtibia -6.65066
rfoot -0.518678 8.82376
rtoes 11.6472
lfemur -48.1163 1.7198 -37.1992
ltibia 39.6417
lfoot -2.36598 6.51714
ltoes -66.9819
121
root -33.0408 15.7159 1.87573 -161.732 36.0026 -170.784
lowerback 7.67166 3.8747 6.88217
upperback -9.48209 6.97956 1.02613
thorax -14.1584 2.86579 -4.07913
lowerneck -15.8274 0.288164 4.87663
upperneck 35.3645 2.68441 -3.45363
head 15.0686 2.21869 -1.60211
rclavicle -6.92033e-014 5.50696e-015
rhumerus -47.2801 29.2485 -91.1905
rradius 37.5626
rwrist -9.50387
rhand -23.9621 -20.4812
rfingers 7.12502
rthumb 2.51394 -50.4461
lclavicle -6.92033e-014 5.50696e-015
lhumerus -53.5257 -1.17735 68.4269
lradius 32.8437
lwrist -1.22085
lhand -24.3376 28.9667
lfingers 7.12502
lthumb 2.15129 58.9356
rfemur -0.212518 -3.51693 45.8484
rtibia -6.19768
rfoot 1.67785 12.2004
rtoes 15.4156
lfemur -47.7521 2.08295 -38.9036
ltibia 36.673
lfoot 1.17858 7.48021
ltoes -69.5999
122
root -32.9097 15.6857 1.82286 -161.206 37.4123 -170.16
lowerback 7.80125 4.13583 7.21217
upperback -9.52609 7.38554 0.947187
thorax -14.203 3.01167 -4.42956
lowerneck -15.85 0.459051 5.19744
upperneck 35.4605 2.84833 -3.46169
head 15.1359 2.33163 -1.63435
rclavicle -8.12315e-014 -1.73937e-014
rhumerus -46.7922 29.7774 -91.4742
rradius 38.0868
rwrist -9.44745
rhand -24.1705 -20.4066
rfingers 7.12502
rthumb 2.31274 -50.3738
lclavicle -8.12315e-014 -1.73937e-014
lhumerus -53.9124 -1.14498 67.8675
lradius 32.6298
lwrist -0.883546
lhand -24.4687 29.077
lfingers 7.12502
lthumb 2.0247 59.0471
rfemur 0.0878519 -5.79357 46.0735
rtibia -5.74548
rfoot 4.26374 15.2164
rtoes 18.9976
lfemur -46.926 2.43355 -40.2432
ltibia 33.6793
lfoot 3.84515 8.64709
ltoes -71.2723
123
root -32.7689 15.6548 1.76885 -160.592 38.7545 -169.538
lowerback 7.83461 4.38163 7.49354
upperback -9.60591 7.76168 0.85792
thorax -14.232 3.15077 -4.75166
lowerneck -15.8651 0.613693 5.53535
upperneck 35.5698 2.9943 -3.49137
head 15.2084 2.43792 -1.68156
rclavicle -1.80335e-014 -1.83876e-015
rhumerus -46.3073 30.2718 -91.7856
rradius 38.5981
rwrist -9.44406
rhand -24.2954 -20.2857
rfingers 7.12502
rthumb 2.19205 -50.2542
lclavicle -1.80335e-014 -1.83876e-015
lhumerus -54.2617 -1.12257 67.3096
lradius 32.3561
lwrist -0.584482
lhand -24.5832 29.2709
lfingers 7.12502
lthumb 1.91412 59.2421
rfemur 0.344984 -7.85245 46.273
rtibia -5.26485
rfoot 7.18459 17.705
rtoes 22.267
lfemur -46.0627 2.49066 -41.1898
ltibia 30.9079
lfoot 5.59326 10.1387
ltoes -72.1817
124
root -32.6173 15.625 1.71422 -159.89 39.9987 -168.889
lowerback 7.78756 4.60551 7.75405
upperback -9.7143 8.1044 0.769828
thorax -14.2473 3.27921 -5.04758
lowerneck -15.8638 0.751873 5.86566
upperneck 35.6743 3.12334 -3.53148
head 15.2748 2.53523 -1.73471
rclavicle 6.19525e-014 4.85035e-014
rhumerus -45.8471 30.745 -92.1256
rradius 39.1254
rwrist -9.48589
rhand -24.3061 -20.1163
rfingers 7.12502
rthumb 2.18178 -50.0849
lclavicle 6.19525e-014 4.85035e-014
lhumerus -54.5623 -1.1026 66.7627
lradius 32.0236
lwrist -0.373295
lhand -24.6328 29.5558
lfingers 7.12502
lthumb 1.86619 59.5274
rfemur 0.572154 -9.74277 46.4803
rtibia -4.76126
rfoot 10.408 19.626
rtoes 25.2734
lfemur -45.2188 2.29294 -41.7234
ltibia 28.5104
lfoot 6.36654 11.9661
ltoes -72.4319
125
root -32.4552 15.5925 1.65956 -159.03 41.0975 -168.224
lowerback 7.55981 4.79633 8.00218
upperback -9.86387 8.39256 0.679424
thorax -14.2034 3.39127 -5.31028
lowerneck -15.8367 0.891161 6.16123
upperneck 35.749 3.25062 -3.53822
head 15.3204 2.63058 -1.76798
rclavicle -8.9801e-014 -4.57205e-015
rhumerus -45.4235 31.2348 -92.5028
rradius 39.6871
rwrist -9.56035
rhand -24.2103 -19.9144
rfingers 7.12502
rthumb 2.27428 -49.882
lclavicle -8.9801e-014 -4.57205e-015
lhumerus -54.8067 -1.08625 66.24
lradius 31.6577
lwrist -0.246549
lhand -24.563 29.8925
lfingers 7.12502
lthumb 1.93362 59.8635
rfemur 0.677696 -11.516 46.7323
rtibia -4.23881
rfoot 13.8602 20.9766
rtoes 28.2189
lfemur -44.5489 1.71574 -41.8632
ltibia 26.5665
lfoot 6.18713 14.1158
ltoes -72.0906
126
root -32.2832 15.5556 1.60574 -158.005 42.074 -167.561
lowerback 7.13182 4.96801 8.2015
upperback -10.0527 8.63657 0.586662
thorax -14.0897 3.49726 -5.51782
lowerneck -15.7969 1.02807 6.42965
upperneck 35.7773 3.37055 -3.53364
head 15.3399 2.71761 -1.79323
rclavicle 3.67503e-014 6.69904e-014
rhumerus -45.0379 31.7662 -92.9082
rradius 40.2728
rwrist -9.66207
rhand -24.0649 -19.6968
rfingers 7.12502
rthumb 2.41468 -49.6629
lclavicle 3.67503e-014 6.69904e-014
lhumerus -54.988 -1.07064 65.7607
lradius 31.2854
lwrist -0.191168
lhand -24.3441 30.2343
lfingers 7.12502
lthumb 2.145 60.2032
rfemur 0.61269 -13.0877 47.0526
rtibia -3.65332
rfoot 17.3102 21.7404
rtoes 30.7561
lfemur -44.1351 0.822497 -41.6813
ltibia 25.1226
lfoot 5.20242 16.1808
ltoes -71.2821
